<svg xmlns="http://www.w3.org/2000/svg" width="52.849" height="56.44" viewBox="0 0 52.849 56.44">
  <g id="industrial-robot" transform="translate(-16.292)">
    <path id="Path_49519" data-name="Path 49519" d="M67.935,51.643h3.307V54.95H67.935Z" transform="translate(-45.95 -45.95)" fill="#fff"/>
    <path id="Path_49520" data-name="Path 49520" d="M239.014,223.551h3.307v3.307h-3.307Z" transform="translate(-198.17 -198.908)" fill="#fff"/>
    <path id="Path_49521" data-name="Path 49521" d="M69.141,15.038h-4v-2.5A5.449,5.449,0,1,0,58.3,5.693H53.5a5.458,5.458,0,0,0-5.192-3.8H28.56a7.344,7.344,0,1,0-5.389,12.779L35.16,26.666a7.318,7.318,0,0,0,1.888,4.554V45.543H32.892a5.455,5.455,0,0,0-5.449,5.449v5.449H57.551V50.992A5.455,5.455,0,0,0,52.1,45.543H47.946V31.22a7.342,7.342,0,0,0-5.079-12.259L36.7,12.8H48.307A5.458,5.458,0,0,0,53.5,9h4.8a5.473,5.473,0,0,0,3.538,3.538v2.5h-4l1.266,10.9h2.732V31.99h3.307V25.935h2.732Zm-30.1,4.778a7.4,7.4,0,0,0-3.029,3.028l-8.985-8.985a7.4,7.4,0,0,0,3.058-3ZM19.6,7.346a4.039,4.039,0,1,1,4.039,4.039A4.044,4.044,0,0,1,19.6,7.346Zm32.5,41.5a2.144,2.144,0,0,1,2.142,2.142v2.142H30.75V50.992a2.144,2.144,0,0,1,2.142-2.142ZM40.356,45.543V33.325a7.342,7.342,0,0,0,4.284,0V45.543ZM46.537,26.3A4.039,4.039,0,1,1,42.5,22.259,4.044,4.044,0,0,1,46.537,26.3Zm1.771-16.81H33.394L30.978,7.071A7.313,7.313,0,0,0,30.666,5.2H48.308a2.142,2.142,0,1,1,0,4.283ZM63.489,5.2a2.142,2.142,0,1,1-2.142,2.142A2.144,2.144,0,0,1,63.489,5.2Zm1.441,17.424H62.048l-.5-4.283h3.877Z" transform="translate(0 0)" fill="#fff"/>
  </g>
</svg>
