<svg xmlns="http://www.w3.org/2000/svg" width="72.976" height="64.139" viewBox="0 0 72.976 64.139">
  <g id="smart-car" transform="translate(0 -31)">
    <path id="Path_49527" data-name="Path 49527" d="M213.138,335.276h8.552a2.138,2.138,0,1,0,0-4.276h-8.552a2.138,2.138,0,1,0,0,4.276Z" transform="translate(-180.926 -257.24)"/>
    <path id="Path_49528" data-name="Path 49528" d="M7.294,61.627a2.138,2.138,0,0,0-3.024,0,15.27,15.27,0,0,0,0,21.184A2.138,2.138,0,1,0,7.29,79.78a11,11,0,0,1,0-15.129,2.138,2.138,0,0,0,0-3.024Z" transform="translate(0 -25.723)"/>
    <path id="Path_49529" data-name="Path 49529" d="M460.094,61.624a2.138,2.138,0,1,0-3.02,3.027,11,11,0,0,1,0,15.129,2.138,2.138,0,1,0,3.02,3.027,15.27,15.27,0,0,0,0-21.183Z" transform="translate(-391.388 -25.724)"/>
    <path id="Path_49530" data-name="Path 49530" d="M110.173,39.552a6.424,6.424,0,0,0-6.046,4.276H97.346a2.138,2.138,0,0,0-2.138,2.138v6.763c-1.281-.144-2.709-.256-4.276-.311V43.46a6.414,6.414,0,1,0-4.276,0v8.958c-1.567.055-3,.167-4.276.311V45.966a2.138,2.138,0,0,0-2.138-2.138H73.46a6.414,6.414,0,1,0,0,4.276H78.1v5.3a26,26,0,0,0-3.494.935,2.138,2.138,0,0,0-1.28,1.327l-2.574,7.722-1.83-1.83A2.138,2.138,0,0,0,65.9,64.581l2.86,2.86a16.611,16.611,0,0,0-3.486,10.228v6.781a2.138,2.138,0,0,0,2.138,2.138V93a2.138,2.138,0,0,0,2.138,2.138H78.1A2.138,2.138,0,0,0,80.242,93V86.587h17.1V93a2.138,2.138,0,0,0,2.138,2.138h8.552A2.138,2.138,0,0,0,110.173,93V86.587a2.138,2.138,0,0,0,2.138-2.138V77.669a16.61,16.61,0,0,0-3.486-10.228l2.86-2.86a2.138,2.138,0,0,0-3.024-3.024l-1.83,1.83-2.574-7.722a2.138,2.138,0,0,0-1.28-1.327,26,26,0,0,0-3.494-.935V48.1h4.644a6.414,6.414,0,1,0,6.046-8.552ZM67.414,48.1a2.138,2.138,0,1,1,2.138-2.138A2.14,2.14,0,0,1,67.414,48.1Zm21.38-12.828a2.138,2.138,0,1,1-2.138,2.138A2.14,2.14,0,0,1,88.794,35.276Zm16.178,34.208a12.368,12.368,0,0,1,2.441,4.276h-5.79a2.138,2.138,0,0,0,0,4.276h6.414v4.276H69.552V78.036h6.414a2.138,2.138,0,1,0,0-4.276h-5.79a12.368,12.368,0,0,1,2.441-4.276ZM75.966,90.863H71.69V86.587h4.276Zm29.932,0h-4.276V86.587H105.9Zm-2.966-25.656H74.656l2.383-7.149a44.855,44.855,0,0,1,11.755-1.4,44.853,44.853,0,0,1,11.755,1.4Zm7.242-17.1a2.138,2.138,0,1,1,2.138-2.138A2.14,2.14,0,0,1,110.173,48.1Z" transform="translate(-52.306)"/>
  </g>
</svg>
