<svg xmlns="http://www.w3.org/2000/svg" width="65.995" height="65.995" viewBox="0 0 65.995 65.995">
  <path id="brain" d="M57.782,35.833a4.511,4.511,0,1,0,0-5.156H35.575V24.1H54.523V12.116h3.259a4.511,4.511,0,1,0,0-5.156H49.367V18.948H35.575V9.259A9.281,9.281,0,0,0,26.295,0a9.069,9.069,0,0,0-6.353,2.561,9.211,9.211,0,0,0-2.414,3.989c-.069.012-.138.026-.207.039l-.16.031c-.106.022-.211.047-.316.073l-.11.026q-.213.055-.421.12l-.067.022c-.115.037-.231.076-.344.117-.046.017-.091.035-.136.052-.09.034-.179.068-.267.105-.051.021-.1.044-.151.066-.082.036-.163.072-.243.11-.052.024-.1.05-.155.076q-.116.057-.231.118l-.152.083c-.076.042-.151.085-.225.129l-.146.088c-.076.047-.15.1-.224.144l-.134.089c-.079.054-.156.11-.233.166l-.114.083c-.094.071-.186.144-.277.219l-.056.044q-.165.137-.325.281l-.063.06c-.083.077-.165.154-.245.233-.034.034-.066.068-.1.1-.065.067-.13.134-.194.2-.037.04-.072.081-.108.121-.058.066-.116.132-.173.2q-.054.065-.107.131c-.054.067-.107.134-.16.2q-.052.068-.1.137-.077.1-.15.21l-.1.14c-.049.074-.1.149-.143.224-.029.046-.057.091-.086.137-.049.082-.1.166-.143.25-.023.041-.047.081-.069.122-.06.112-.118.225-.174.339-.007.014-.014.028-.021.042-.062.129-.121.261-.178.394-.016.037-.03.075-.045.112-.039.1-.078.191-.114.289-.019.05-.036.1-.053.151-.03.086-.06.172-.088.259-.018.055-.034.112-.051.168-.025.084-.049.167-.071.251-.016.059-.03.118-.045.177-.021.084-.04.167-.058.252-.013.06-.026.12-.037.181-.017.085-.032.171-.046.257-.01.06-.02.12-.029.181-.013.09-.024.18-.034.27-.007.058-.014.115-.02.173-.01.1-.016.2-.023.3,0,.049-.008.1-.01.148-.008.151-.012.3-.012.454s0,.29.011.434l0,.071c0,.022,0,.044,0,.066a9.3,9.3,0,0,0-6.192,8.751,8.376,8.376,0,0,0,.282,2.136A9.054,9.054,0,0,0,2.206,40.524,9.123,9.123,0,0,0,0,46.477,9.3,9.3,0,0,0,7.58,55.6a9.3,9.3,0,0,0,11.861,7.49A9.158,9.158,0,0,0,26.295,66a9.309,9.309,0,0,0,6.537-2.629,9.026,9.026,0,0,0,2.743-6.522V47.305h23.33v7.126a4.511,4.511,0,1,0,5.156,0V42.149H35.575V35.833ZM26.295,60.839a3.891,3.891,0,0,1-3.632-2.071l-.717-1.409H19.513l-.618.377a4.1,4.1,0,0,1-2.139.592v-.059a4.077,4.077,0,0,1-4.071-4.732l.048-.3a4.131,4.131,0,0,1,4.023-3.218V44.863a9.293,9.293,0,0,0-8.52,5.6,4.131,4.131,0,0,1-3.081-3.99,4,4,0,0,1,2.22-3.587l1.389-.722V38.939l-1.356-.73a4.008,4.008,0,0,1,.573-7.433l1.685-.622V27.563l-.322-.583a4.036,4.036,0,0,1-.58-1.953,4.131,4.131,0,0,1,2.777-3.9,9.272,9.272,0,0,0,7.522,3.855V19.829a4.125,4.125,0,1,1,0-8.249c.094,0,.2,0,.33.015l1.233.1,1.617-1.718.051-.942a4,4,0,0,1,4-3.876,4.119,4.119,0,0,1,4.125,4.1V33.126h-.013a4.125,4.125,0,0,1-8.249,0H17a9.275,9.275,0,0,0,13.418,8.3V56.843A4.018,4.018,0,0,1,26.295,60.839Zm0,0"/>
</svg>
