<svg id="cyber-security" xmlns="http://www.w3.org/2000/svg" width="66.045" height="66.045" viewBox="0 0 66.045 66.045">
  <g id="Group_37382" data-name="Group 37382" transform="translate(15.479 35.086)">
    <g id="Group_37381" data-name="Group 37381">
      <path id="Path_49531" data-name="Path 49531" d="M125.8,272a5.8,5.8,0,0,0-1.935,11.277v6.138a1.935,1.935,0,1,0,3.87,0v-6.138A5.8,5.8,0,0,0,125.8,272Zm0,7.74a1.935,1.935,0,1,1,1.935-1.935A1.937,1.937,0,0,1,125.8,279.74Z" transform="translate(-120 -272)"/>
    </g>
  </g>
  <g id="Group_37384" data-name="Group 37384">
    <g id="Group_37383" data-name="Group 37383">
      <path id="Path_49532" data-name="Path 49532" d="M54.768,46.7a5.8,5.8,0,1,0,0-3.87h-12.2v-3.87H52.5a1.935,1.935,0,0,0,1.337-.536l4.025-3.845a5.811,5.811,0,1,0-2.8-2.676l-3.337,3.187H42.568V33.151A5.814,5.814,0,0,0,38.7,27.68V17.414a17.414,17.414,0,1,0-34.828,0V27.68A5.814,5.814,0,0,0,0,33.151V56.37a5.811,5.811,0,0,0,5.8,5.8H36.763a5.811,5.811,0,0,0,5.8-5.8V54.435H51.6l3.2,3.79a5.817,5.817,0,1,0,2.53-3l-3.346-3.97a1.935,1.935,0,0,0-1.479-.688H42.568V46.7Zm5.472-3.87a1.935,1.935,0,1,1-1.935,1.935A1.937,1.937,0,0,1,60.24,42.826Zm0-15.479a1.935,1.935,0,1,1-1.935,1.935A1.937,1.937,0,0,1,60.24,27.347ZM7.74,17.414a13.544,13.544,0,1,1,27.089,0v9.933h-3.87V17.414a9.675,9.675,0,1,0-19.349,0v9.933H7.74Zm19.349,0v9.933H15.479V17.414a5.8,5.8,0,1,1,11.609,0ZM38.7,56.37a1.937,1.937,0,0,1-1.935,1.935H5.8A1.937,1.937,0,0,1,3.87,56.37V33.151A1.937,1.937,0,0,1,5.8,31.217H36.763A1.937,1.937,0,0,1,38.7,33.151ZM60.24,58.305a1.935,1.935,0,1,1-1.935,1.935A1.937,1.937,0,0,1,60.24,58.305Z"/>
    </g>
  </g>
</svg>
