<svg xmlns="http://www.w3.org/2000/svg" width="1920" height="1129.738" viewBox="0 0 1920 1129.738">
  <path id="Subtraction_2" data-name="Subtraction 2" d="M1685,1129.738h0c-55.9-23.668-119.735-45.311-189.746-64.327-70.432-19.131-147.246-35.64-228.309-49.069-40.9-6.776-83.383-12.841-126.26-18.025-43.392-5.246-88.164-9.71-133.073-13.265-45.565-3.607-92.312-6.362-138.945-8.19-47.41-1.858-95.816-2.8-143.873-2.8-48.03,0-96.406.941-143.784,2.8-46.6,1.825-93.323,4.578-138.863,8.181-44.878,3.551-89.626,8.009-133,13.25-42.844,5.177-85.3,11.234-126.2,18-81.028,13.414-157.814,29.905-228.225,49.015-69.992,19-133.824,40.615-189.722,64.256V0H1685V1129.736Z" transform="translate(235 0)" fill="#f3fbf7"/>
</svg>
