<svg id="Group_37720" data-name="Group 37720" xmlns="http://www.w3.org/2000/svg" width="88.831" height="3.922" viewBox="0 0 88.831 3.922">
    <g id="Group_37435" data-name="Group 37435">
        <path id="Path_50345" data-name="Path 50345" d="M1488.086,666.907c-1.473-1.288-2.178-2.342-3.06-2.524a2.574,2.574,0,0,0-2.087,1.51c-.113.725.723,2.194,1.319,2.292C1485.168,668.337,1486.228,667.59,1488.086,666.907Z" transform="translate(-1451.475 -664.339)" fill="#fff" />
        <path id="Path_50346" data-name="Path 50346" d="M1511.63,660.032c-.821-1.112-1.258-2.285-1.876-2.392-.733-.124-1.624.668-2.446,1.064.416.809.653,2.043,1.293,2.309C1509.221,661.268,1510.253,660.526,1511.63,660.032Z" transform="translate(-1422.799 -657.143)" fill="#fff" />
        <path id="Path_50347" data-name="Path 50347" d="M1506.667,661.626c-.635-1.173-.923-2.359-1.4-2.442-.8-.139-1.719.429-2.588.7.263.738.368,1.952.827,2.107C1504.276,662.249,1505.272,661.831,1506.667,661.626Z" transform="translate(-1428.245 -659.163)" fill="#fff" />
        <path id="Path_50348" data-name="Path 50348" d="M1472.367,670.225c-.982-.781-1.543-1.578-2.124-1.591s-1.177.757-1.767,1.186c.477.579.875,1.512,1.447,1.639C1470.472,671.579,1471.2,670.854,1472.367,670.225Z" transform="translate(-1468.476 -668.634)" fill="#fff" />
        <path id="Path_50349" data-name="Path 50349" d="M1491.748,662.679l-1.589,1.436q.734.806,1.469,1.617c.427-.42,1.141-.8,1.2-1.271C1492.886,664.013,1492.266,663.478,1491.748,662.679Z" transform="translate(-1442.971 -662.213)" fill="#fff" />
        <path id="Path_50350" data-name="Path 50350" d="M1498.392,660.856c-.687.925-1.214,1.358-1.323,1.88-.072.342.535,1.188.709,1.153.592-.115,1.412-.407,1.593-.853C1499.526,662.649,1498.925,661.961,1498.392,660.856Z" transform="translate(-1434.849 -660.23)" fill="#fff" />
    </g>
    <path id="Path_50351" data-name="Path 50351" d="M1477.872,668.409a1.089,1.089,0,0,1-2.107-.546A1.089,1.089,0,0,1,1477.872,668.409Z" transform="translate(-1459.948 -666.778)" fill="#fff" />
</svg>
  