<svg xmlns="http://www.w3.org/2000/svg" width="247.135" height="148.185" viewBox="0 0 247.135 148.185">
    <g id="Group_37699" data-name="Group 37699" transform="translate(-0.804 3.498) rotate(-1)">
        <ellipse id="Ellipse_31" data-name="Ellipse 31" cx="72.832" cy="72.832" rx="72.832" ry="72.832" transform="translate(54.771 0)" fill="#fff" opacity="0" />
        <path id="Path_50291" data-name="Path 50291" d="M134.328,90.106c-6.429,19.794-19.367,34.515-38.2,42.986C85.516,137.862,73.7,141.264,61.7,137.84L59.8,137.3c-13.217-1.149-24-7.676-33.645-16.422a43.324,43.324,0,0,1-15.929-16.19C2.55,90.825-1.361,76.524.43,61.456Q.411,60.779.384,60.1a11.981,11.981,0,0,1,1.271-5.574C2.041,52.877,2.47,51.22,3,49.549,7.124,37.5,12.955,26.321,21.967,17.2,30.254,8.813,40.095,4.725,50.724,3.02a68.551,68.551,0,0,1,42.543.754c10.926,3.671,21.768,9.143,28.016,19.683q1.348,2.276,2.682,4.57c.245.237.487.475.734.711a12.141,12.141,0,0,1,3.056,5.108c.3,1,.6,1.987.911,2.98a51.708,51.708,0,0,1,4.92,15.9c2.023,7.283,3.469,14.682,3.181,22.42A55.648,55.648,0,0,1,134.328,90.106Zm-1.573-.52a54.006,54.006,0,0,0,2.369-14.561c.275-7.533-1.142-14.738-3.12-21.831a50.361,50.361,0,0,0-4.811-15.485q-.454-1.449-.892-2.9a11.827,11.827,0,0,0-2.985-4.976c-.239-.228-.477-.46-.716-.692q-1.3-2.232-2.621-4.45c-6.1-10.266-16.685-15.6-27.348-19.181a67.017,67.017,0,0,0-41.508-.763C40.751,6.4,31.153,10.373,23.073,18.532,14.285,27.4,8.6,38.284,4.59,50.013c-.515,1.626-.933,3.239-1.309,4.847a11.616,11.616,0,0,0-1.236,5.425c.018.439.031.877.045,1.318C.352,76.272,4.18,90.2,11.68,103.7A42.3,42.3,0,0,0,27.234,119.47c9.415,8.521,19.94,14.881,32.839,16.011l1.847.527c11.717,3.341,23.241.038,33.587-4.6C113.88,123.175,126.494,108.85,132.754,89.586Z" transform="translate(66.266 0.242)" fill="#fff" />
        <path id="Path_50292" data-name="Path 50292" d="M242.474,69.072c-6.4-8.3-17.321-15.558-28.818-22.7a43.848,43.848,0,0,0-4.109-1.967l-.336.145c6.194,4.392,12.413,8.777,18.576,13.177A52.257,52.257,0,0,1,240.42,70.513c1.988,2.8,2.625,5.46,1.14,7.642-3.629,5.331-10.379,8.829-22.65,8.851-7.807.013-16.1-1.231-24.381-2.407-13.912-1.976-27.8-3.573-41.847-7.294-12.479-3.306-24.945-6.7-37.341-10.25-9.591-2.752-19.359-5.441-28.525-8.818C69.735,51.945,52.982,45.229,36.208,38.57c-7.312-2.9-13.261-6.525-17.627-10.714a35.23,35.23,0,0,0-3.337-2.826c-6.125-4.57-8.934-9.213-10.2-13.81-.415-1.5-.4-3.368,1.124-4.124,5.048-2.5,10.259-5.151,19.148-4.7.9.047,1.823.111,2.732.158A55.351,55.351,0,0,1,41.37,2.521a118.348,118.348,0,0,1,22.6,1.9c.053-.136.118-.272.18-.406C53.468,2.3,42.864.961,32.325.232c-11.91-.825-20.819.584-28.267,3.7C.669,5.352-.524,7.4.206,10.217c1.546,5.963,6.348,11.709,13.281,17.662C20.254,33.69,28.443,38.447,38.7,42.5c7.171,2.839,14.271,5.751,21.429,8.6,10.747,4.281,21.508,8.555,32.969,11.882,12.986,3.768,26.042,7.383,38.949,11.318,26.027,7.934,51.768,11.363,77.463,14.441,14.552,1.744,25.233-.121,32.065-5.333C246.578,79.594,247,74.932,242.474,69.072Z" transform="translate(0 46.043)" fill="#fff" />
    </g>
</svg>
  