<svg id="Group_37690" data-name="Group 37690" xmlns="http://www.w3.org/2000/svg" xmlns:xlink="http://www.w3.org/1999/xlink" width="20.898" height="48.085" viewBox="0 0 20.898 48.085">
    <defs>
        <linearGradient id="linear-gradient" x1="0.5" x2="0.5" y2="1" gradientUnits="objectBoundingBox">
            <stop offset="0" stop-color="#4fa935" />
            <stop offset="0.424" stop-color="#459e20" />
            <stop offset="1" stop-color="#119137" />
        </linearGradient>
    </defs>
    <path id="Path_50802" data-name="Path 50802" d="M1405.219,983.7a5.457,5.457,0,0,0,3.7,1.813,3.062,3.062,0,0,0,1.441-.348l2.418,2.121v20.451h1.858V988.871l3.159-2.771a3.724,3.724,0,1,0-1.348-1.288l-1.811,1.589v-9.839c2.4-.6,4.384-3.124,3.672-7.662-.661-4.221-5.759-8.819-5.976-9.013a.929.929,0,0,0-1.42.223c-.147.25-3.595,6.187-2.933,10.408.611,3.9,2.668,5.778,4.8,6.123v8.173l-1.141-1c.592-1.286.307-3.138-1.63-5.027-2.032-1.982-6.34-2.587-6.522-2.611a.929.929,0,0,0-1.042,1.068C1402.475,977.426,1403.187,981.717,1405.219,983.7Zm14.392-2.708a1.863,1.863,0,1,1-1.863,1.863A1.865,1.865,0,0,1,1419.611,980.991Zm-9.794-10.76c-.412-2.626,1.231-6.335,2.137-8.129,1.412,1.431,4.11,4.46,4.521,7.086.485,3.1-.508,5.305-2.53,5.623S1410.3,973.329,1409.817,970.231Zm-1.1,9.886c1.279,1.247,1.7,2.539,1.04,3.212s-1.958.287-3.237-.96a9.693,9.693,0,0,1-1.946-4.1A9.676,9.676,0,0,1,1408.713,980.117Z" transform="translate(-1402.434 -959.651)" fill="url(#linear-gradient)" />
    <g id="Group_37679" data-name="Group 37679" transform="translate(8.913 2.451)">
        <path id="Path_50803" data-name="Path 50803" d="M1489.922,989.387c-.412-2.626-3.11-5.655-4.521-7.086-.181.357-.391.793-.607,1.278,1.409,1.589,3.124,3.883,3.446,5.935.434,2.772-.318,4.826-1.929,5.456a2.779,2.779,0,0,0,1.081.039C1489.414,994.692,1490.407,992.485,1489.922,989.387Z" transform="translate(-1484.793 -982.301)" fill="url(#linear-gradient)" />
    </g>
</svg>
  