<svg xmlns="http://www.w3.org/2000/svg" width="1920" height="1184.737" viewBox="0 0 1920 1184.737">
  <path id="Subtraction_3" data-name="Subtraction 3" d="M1685,1184.738h0c-55.9-24.82-119.735-47.517-189.746-67.459-70.432-20.062-147.246-37.375-228.309-51.458-40.9-7.106-83.383-13.466-126.26-18.9-43.392-5.5-88.164-10.182-133.073-13.911-45.565-3.783-92.312-6.672-138.945-8.589-47.41-1.948-95.816-2.936-143.873-2.936-48.03,0-96.406.987-143.784,2.933-46.6,1.914-93.323,4.8-138.863,8.579-44.878,3.724-89.626,8.4-133,13.9-42.844,5.429-85.3,11.781-126.2,18.881-81.028,14.067-157.814,31.361-228.225,51.4C-115.27,1137.089-179.1,1159.76-235,1184.553V0H1685V1184.736Z" transform="translate(1685 1184.738) rotate(180)" fill="#f3fbf7"/>
</svg>
