<svg id="Group_16859" data-name="Group 16859" xmlns="http://www.w3.org/2000/svg" width="24.009" height="30.473" viewBox="0 0 24.009 30.473">
  <path id="hotel" d="M30.393,18.176h.092V11.435A1.36,1.36,0,0,0,29.1,10.05H10.909a1.42,1.42,0,0,0-1.385,1.385v6.741H30.393Zm-6.51-5.448a.436.436,0,0,1,.462-.462h2.309a.463.463,0,0,1,.462.462V15.5a.436.436,0,0,1-.462.462H24.345a.463.463,0,0,1-.462-.462Zm-5.494,0a.463.463,0,0,1,.462-.462h2.309a.463.463,0,0,1,.462.462V15.5a.463.463,0,0,1-.462.462H18.85a.463.463,0,0,1-.462-.462Zm-5.494,0a.436.436,0,0,1,.462-.462h2.309a.463.463,0,0,1,.462.462V15.5a.436.436,0,0,1-.462.462H13.356a.463.463,0,0,1-.462-.462Zm-3.278,9.7H30.393a.926.926,0,0,0,.923-.923V20.022a.926.926,0,0,0-.923-.923H9.616a.926.926,0,0,0-.923.923V21.5A.9.9,0,0,0,9.616,22.423Zm21.931,8.126H30.485v-7.2H9.524v7.2H8.462a.462.462,0,0,0,0,.923H31.547a.462.462,0,1,0,0-.923Zm-12,0H16.819V24.224h2.724Zm3.648,0H20.466V24.224H23.19ZM13.079,1.923h.6v7.2h12.7v-7.2h.554a.463.463,0,0,0,.462-.462A.5.5,0,0,0,26.93,1H13.079a.463.463,0,0,0-.462.462A.436.436,0,0,0,13.079,1.923Zm5.31,2.724a.3.3,0,0,1,.277-.277h2.678a.3.3,0,0,1,.277.277V7.325a.3.3,0,0,1-.277.277H18.665a.3.3,0,0,1-.277-.277Z" transform="translate(-8 -1)" fill="#fff"/>
</svg>
