<svg xmlns="http://www.w3.org/2000/svg" width="29.764" height="20.928" viewBox="0 0 29.764 20.928">
  <g id="mail-3" transform="translate(0 -76)">
    <g id="Group_16271" data-name="Group 16271" transform="translate(20.475 77.495)">
      <g id="Group_16270" data-name="Group 16270">
        <path id="Path_30501" data-name="Path 30501" d="M361.238,101.721l-9.027,8.969,9.027,8.969a2.586,2.586,0,0,0,.262-1.121v-15.7A2.586,2.586,0,0,0,361.238,101.721Z" transform="translate(-352.211 -101.721)" fill="#fff"/>
      </g>
    </g>
    <g id="Group_16273" data-name="Group 16273" transform="translate(1.495 76)">
      <g id="Group_16272" data-name="Group 16272">
        <path id="Path_30502" data-name="Path 30502" d="M51.374,76H26.842a2.586,2.586,0,0,0-1.121.262L37.258,87.741a2.618,2.618,0,0,0,3.7,0L52.494,76.262A2.586,2.586,0,0,0,51.374,76Z" transform="translate(-25.721 -76)" fill="#fff"/>
      </g>
    </g>
    <g id="Group_16275" data-name="Group 16275" transform="translate(0 77.495)">
      <g id="Group_16274" data-name="Group 16274">
        <path id="Path_30503" data-name="Path 30503" d="M.262,101.721A2.586,2.586,0,0,0,0,102.842v15.7a2.585,2.585,0,0,0,.262,1.121l9.027-8.969Z" transform="translate(0 -101.721)" fill="#fff"/>
      </g>
    </g>
    <g id="Group_16277" data-name="Group 16277" transform="translate(1.495 87.697)">
      <g id="Group_16276" data-name="Group 16276">
        <path id="Path_30504" data-name="Path 30504" d="M43.468,277.211l-1.277,1.277a4.364,4.364,0,0,1-6.165,0l-1.277-1.277-9.027,8.969a2.586,2.586,0,0,0,1.121.262H51.374a2.586,2.586,0,0,0,1.121-.262Z" transform="translate(-25.721 -277.211)" fill="#fff"/>
      </g>
    </g>
  </g>
</svg>
