<svg xmlns="http://www.w3.org/2000/svg" width="21.524" height="34.156" viewBox="0 0 21.524 34.156">
  <g id="phone-2" transform="translate(0)">
    <g id="Group_16251" data-name="Group 16251" transform="translate(0)">
      <path id="Path_30492" data-name="Path 30492" d="M92.171.956v0A3.232,3.232,0,0,0,89.881,0H74.839A3.25,3.25,0,0,0,71.6,3.239V30.913a3.253,3.253,0,0,0,3.239,3.243H89.885a3.253,3.253,0,0,0,3.239-3.239V3.243A3.232,3.232,0,0,0,92.171.956Zm-9.809,31h0a.875.875,0,1,1,.875-.875A.875.875,0,0,1,82.362,31.958Zm8.19-5.494a2.117,2.117,0,0,1-2.117,2.117H76.286a2.117,2.117,0,0,1-2.117-2.117V5.84a2.117,2.117,0,0,1,2.117-2.117H88.438A2.117,2.117,0,0,1,90.555,5.84Z" transform="translate(-71.6)" fill="#fff"/>
    </g>
  </g>
</svg>
