<svg xmlns="http://www.w3.org/2000/svg" width="51.409" height="50.047" viewBox="0 0 51.409 50.047">
  <g id="Group_16456" data-name="Group 16456" transform="translate(-60.214 -38.872)">
    <path id="Path_98" data-name="Path 98" d="M71.869,60.529a19.633,19.633,0,0,1,1.336-2.056c-2.261-4.158-4.663-8-6.671-11-2.633-3.951-4.571-6.458-4.571-6.458S64,43.443,66.8,47.291c2.076,2.846,4.562,6.483,6.95,10.45a29.025,29.025,0,0,1,7.376-6.354c-8.452-7.8-20.909-12.515-20.909-12.515a41.659,41.659,0,0,1,1.331,9.3c.465,10.067-.8,25.032,9.673,29.233C68.881,71.207,69.091,65.543,71.869,60.529Z" transform="translate(0 0)" fill="#4fa935"/>
    <path id="Path_99" data-name="Path 99" d="M69.61,76.842c-.1.172-.2.342-.288.51-.346.6-.656,1.185-.923,1.758s-.555,1.1-.757,1.631-.417,1.017-.6,1.471c-.155.469-.3.9-.43,1.288a18.93,18.93,0,0,0-.508,1.844L65.94,86l2.285.419s.041-.209.125-.6a16.4,16.4,0,0,1,.392-1.695c.1-.361.221-.761.348-1.2.155-.43.325-.9.5-1.392s.411-1.015.65-1.562.5-1.119.809-1.7c.292-.591.607-1.2.972-1.815.348-.624.719-1.261,1.132-1.9s.822-1.3,1.284-1.96c.443-.667.923-1.331,1.422-2a91.314,91.314,0,0,1,6.726-8.039A155.214,155.214,0,0,1,97.012,49.108c4.158-3.433,7.088-5.526,7.088-5.526s-2.865,2.181-6.916,5.741A154.712,154.712,0,0,0,83.177,63.206,91.141,91.141,0,0,0,76.7,71.445c-.478.684-.938,1.362-1.36,2.043-.441.671-.847,1.34-1.222,2-.394.65-.746,1.3-1.075,1.932-.29.521-.538,1.035-.774,1.54,22.294,8.712,25.884-13.877,30.184-27.405a47.294,47.294,0,0,1,4.2-9.809S54.845,46.936,69.61,76.842Z" transform="translate(4.974 2.496)" fill="#4fa935"/>
  </g>
</svg>
