<svg xmlns="http://www.w3.org/2000/svg" width="145.062" height="71.458" viewBox="0 0 145.062 71.458">
  <g id="Group_16581" data-name="Group 16581" transform="translate(-186.246 -139.613)">
    <g id="Group_4" data-name="Group 4" transform="translate(242.801 139.613)">
      <g id="Group_1" data-name="Group 1" transform="translate(0)">
        <path id="Path_1" data-name="Path 1" d="M283.6,158.51a10.354,10.354,0,0,0,2.821-2.629,9.239,9.239,0,0,0,1.45-3.049,11.214,11.214,0,0,0,.389-2.766,14.049,14.049,0,0,0-.163-2.049,9.672,9.672,0,0,0-.664-2.329,9.318,9.318,0,0,0-1.4-2.285,8.715,8.715,0,0,0-2.421-1.989,13.287,13.287,0,0,0-3.457-1.317,20,20,0,0,0-4.667-.483H264.91v32.129h6.939V160.478h1.272l8.344,11.264h8.541l-8.915-12.067A10.441,10.441,0,0,0,283.6,158.51Zm-11.749-14.361h1.229a19.566,19.566,0,0,1,3.2.26,7.237,7.237,0,0,1,2.52.888,4.5,4.5,0,0,1,1.633,1.7,6.088,6.088,0,0,1,.626,2.986,6.53,6.53,0,0,1-.53,2.792,4.377,4.377,0,0,1-1.456,1.744,6.868,6.868,0,0,1-2.477,1.045,16.287,16.287,0,0,1-3.559.356h-1.189Z" transform="translate(-264.91 -139.613)" fill="#303030"/>
      </g>
      <g id="Group_2" data-name="Group 2" transform="translate(30.309)">
        <path id="Path_2" data-name="Path 2" d="M368.958,139.613l2.131,5.087-11.371,27.042h5.216l1.589-3.834h14.43l1.629,3.834h7.4L376.41,139.613Zm-.538,23.759,5.257-12.547,5.359,12.547Z" transform="translate(-359.718 -139.613)" fill="#303030"/>
      </g>
      <g id="Group_3" data-name="Group 3" transform="translate(62.357 0)">
        <path id="Path_3" data-name="Path 3" d="M480.8,139.613,474.64,151.48l-6.571-11.866h-8.1l10.355,17.755v14.374h6.78V157.094l9.014-17.48Z" transform="translate(-459.967 -139.613)" fill="#303030"/>
      </g>
    </g>
    <g id="Group_6" data-name="Group 6" transform="translate(203.305 141.808)">
      <path id="Path_13" data-name="Path 13" d="M183.693,193.776l8.863-12.821a27.517,27.517,0,0,0-4.268-5.611l-7.81,13.342A27.8,27.8,0,0,0,183.693,193.776Z" transform="translate(-166.909 -166.116)" fill="#4fa935"/>
      <path id="Path_14" data-name="Path 14" d="M214.9,229.13a21.927,21.927,0,0,0,.343-11.717l-5.891,10.064A12.941,12.941,0,0,0,214.9,229.13Z" transform="translate(-186.551 -194.736)" fill="#4fa935"/>
      <path id="Path_15" data-name="Path 15" d="M197.289,210.3l6.841-9.9a27.8,27.8,0,0,0-2.914-7.353L193.164,206.8A19.46,19.46,0,0,0,197.289,210.3Z" transform="translate(-175.54 -178.16)" fill="#4fa935"/>
      <path id="Path_16" data-name="Path 16" d="M147.752,156.861a47.793,47.793,0,0,0,3.233,10.875l8.361-12.1c-4.663-4.692-11.582-8.288-21.311-9.162,0,0,3.378,6.012,4.711,17.851,2.65,23.9,14.043,29.244,34.785,21.137C144.555,185.467,147.752,156.861,147.752,156.861Z" transform="translate(-138.036 -146.479)" fill="#4fa935"/>
    </g>
    <path id="Path_17" data-name="Path 17" d="M3.685-7.348a.825.825,0,0,1,.933-.933h.956a.825.825,0,0,1,.933.933V2.68a6.133,6.133,0,0,1-.968,3.8,3.6,3.6,0,0,1-3.02,1.236A8.191,8.191,0,0,1,.91,7.555q-.77-.14-.77-.816A.85.85,0,0,1,.152,6.6q.012-.07.035-.163l.187-.793a.83.83,0,0,1,.886-.723,1.107,1.107,0,0,1,.257.023,4.084,4.084,0,0,0,.7.07A1.248,1.248,0,0,0,3.358,4.5,3.622,3.622,0,0,0,3.685,2.68Zm9.4,10.028a9.71,9.71,0,0,1-1.9-.152,2.2,2.2,0,0,1-1.143-.56A2.183,2.183,0,0,1,9.48.85,9.2,9.2,0,0,1,9.329-1V-13.5a.825.825,0,0,1,.933-.933h.956a.825.825,0,0,1,.933.933V-1a.825.825,0,0,0,.933.933h2.309V2.68ZM13.876,1.3A1.284,1.284,0,0,1,14.3.313a1.559,1.559,0,0,1,1.1-.385h4.664V2.68H15.392A1.559,1.559,0,0,1,14.3,2.3,1.284,1.284,0,0,1,13.876,1.3Zm4.664,0a1.284,1.284,0,0,1,.42-.991,1.559,1.559,0,0,1,1.1-.385h4.664V2.68H20.056a1.559,1.559,0,0,1-1.1-.385A1.284,1.284,0,0,1,18.541,1.3Zm4.664,0a1.284,1.284,0,0,1,.42-.991,1.559,1.559,0,0,1,1.1-.385h4.664V2.68H24.721a1.559,1.559,0,0,1-1.1-.385A1.284,1.284,0,0,1,23.2,1.3Zm4.664,0a1.284,1.284,0,0,1,.42-.991,1.559,1.559,0,0,1,1.1-.385h4.664V2.68H29.385a1.559,1.559,0,0,1-1.1-.385A1.284,1.284,0,0,1,27.869,1.3Zm4.664,0a1.284,1.284,0,0,1,.42-.991,1.559,1.559,0,0,1,1.1-.385h4.664V2.68H34.049a1.559,1.559,0,0,1-1.1-.385A1.284,1.284,0,0,1,32.533,1.3Zm20.2-7.393a7.032,7.032,0,0,1,.443,2.519v.257a1.311,1.311,0,0,1-.023.257,3.169,3.169,0,0,0,.9,2.262,3.794,3.794,0,0,0,2.577.723V2.68a6.572,6.572,0,0,1-2.938-.571A3.987,3.987,0,0,1,51.937.442a5.352,5.352,0,0,1-2.029,1.7,5.847,5.847,0,0,1-2.565.583,6.249,6.249,0,0,1-2.367-.478A7.1,7.1,0,0,1,42.748.768a4.253,4.253,0,0,1-1.679,1.423,5.406,5.406,0,0,1-2.355.49,1.516,1.516,0,0,1-1.084-.408A1.34,1.34,0,0,1,37.2,1.258a1.213,1.213,0,0,1,.42-.968,1.62,1.62,0,0,1,1.1-.361,2.427,2.427,0,0,0,1.271-.315,1.807,1.807,0,0,0,.758-.875A6.9,6.9,0,0,0,41-1.984q.093-.326.175-.688t.163-.8q.082-.443.245-1.073a8.079,8.079,0,0,1,2.064-3.941A4.893,4.893,0,0,1,47.2-9.89a5.827,5.827,0,0,1,2.355.478,5.748,5.748,0,0,1,1.9,1.329A6.381,6.381,0,0,1,52.73-6.088ZM50.351-3.57a4.1,4.1,0,0,0-.233-1.411,3.343,3.343,0,0,0-.653-1.108,2.909,2.909,0,0,0-1-.723A3.092,3.092,0,0,0,47.2-7.068a2.287,2.287,0,0,0-1.784.735,5.555,5.555,0,0,0-1.084,2.227q-.21.746-.3,1.259l-.21,1A5.368,5.368,0,0,0,45.512-.468a3.96,3.96,0,0,0,1.761.443,3.061,3.061,0,0,0,1.189-.233,2.77,2.77,0,0,0,.979-.688,3.318,3.318,0,0,0,.665-1.119A4.33,4.33,0,0,0,50.351-3.57ZM55.109,1.3a1.284,1.284,0,0,1,.42-.991,1.559,1.559,0,0,1,1.1-.385h4.664V2.68H56.625a1.559,1.559,0,0,1-1.1-.385A1.284,1.284,0,0,1,55.109,1.3ZM68.192-.864a3.672,3.672,0,0,0,2.659.793V2.68a6.607,6.607,0,0,1-2.88-.548A4.079,4.079,0,0,1,66.21.535a4.885,4.885,0,0,1-2.017,1.6,7.166,7.166,0,0,1-2.9.548A1.516,1.516,0,0,1,60.2,2.272a1.34,1.34,0,0,1-.431-1.014,1.213,1.213,0,0,1,.42-.968,1.621,1.621,0,0,1,1.1-.361,3.373,3.373,0,0,0,2.472-.793,3.483,3.483,0,0,0,.793-2.542V-7.348a.825.825,0,0,1,.933-.933h.956a.825.825,0,0,1,.933.933v3.941A3.419,3.419,0,0,0,68.192-.864Zm.7-12.127a.753.753,0,0,1,.863.84v1.236a.753.753,0,0,1-.863.84H67.679a.753.753,0,0,1-.863-.84v-1.236a.753.753,0,0,1,.863-.84Zm-6.74.84a.753.753,0,0,1,.863-.84h1.213a.753.753,0,0,1,.863.84v1.236a.753.753,0,0,1-.863.84H63.015a.753.753,0,0,1-.863-.84Zm5.271-1.912a.753.753,0,0,1-.863.84H65.347a.753.753,0,0,1-.863-.84V-15.3a.753.753,0,0,1,.863-.84h1.213a.753.753,0,0,1,.863.84ZM69.335,1.3a1.284,1.284,0,0,1,.42-.991,1.559,1.559,0,0,1,1.1-.385h4.664V2.68H70.851a1.559,1.559,0,0,1-1.1-.385A1.284,1.284,0,0,1,69.335,1.3Zm12.873.816A3.994,3.994,0,0,1,80.436.535a4.885,4.885,0,0,1-2.017,1.6,7.166,7.166,0,0,1-2.9.548,1.516,1.516,0,0,1-1.084-.408A1.34,1.34,0,0,1,74,1.258a1.213,1.213,0,0,1,.42-.968,1.62,1.62,0,0,1,1.1-.361,3.373,3.373,0,0,0,2.472-.793,3.483,3.483,0,0,0,.793-2.542V-7.348a.825.825,0,0,1,.933-.933h.956a.825.825,0,0,1,.933.933v3.941a3.45,3.45,0,0,0,.8,2.542,3.717,3.717,0,0,0,2.67.793V2.68A6.411,6.411,0,0,1,82.208,2.121ZM78.757-13.062a.753.753,0,0,1,.863.84v1.236a.753.753,0,0,1-.863.84H77.544a.753.753,0,0,1-.863-.84v-1.236a.753.753,0,0,1,.863-.84Zm4.2,0a.753.753,0,0,1,.863.84v1.236a.753.753,0,0,1-.863.84H81.742a.753.753,0,0,1-.863-.84v-1.236a.753.753,0,0,1,.863-.84ZM83.561,1.3a1.284,1.284,0,0,1,.42-.991,1.559,1.559,0,0,1,1.1-.385h4.664V2.68H85.077a1.559,1.559,0,0,1-1.1-.385A1.284,1.284,0,0,1,83.561,1.3ZM108.4-8.957a.825.825,0,0,1,.933-.933h.956a.825.825,0,0,1,.933.933V-1A9.2,9.2,0,0,1,111.068.85a2.183,2.183,0,0,1-.56,1.119,2.2,2.2,0,0,1-1.143.56,9.71,9.71,0,0,1-1.9.152H106.3a4.986,4.986,0,0,1-2.379-.513A3.825,3.825,0,0,1,102.4.7a4.386,4.386,0,0,1-1.7,1.481,5.244,5.244,0,0,1-2.332.5A4.454,4.454,0,0,1,96.1,2.144,3.785,3.785,0,0,1,94.638.581a5.062,5.062,0,0,1-2.029,1.563,7.153,7.153,0,0,1-2.869.536,1.559,1.559,0,0,1-1.1-.385,1.284,1.284,0,0,1-.42-.991,1.284,1.284,0,0,1,.42-.991,1.559,1.559,0,0,1,1.1-.385,3.373,3.373,0,0,0,2.472-.793,3.483,3.483,0,0,0,.793-2.542V-8.187a.825.825,0,0,1,.933-.933h.956a.825.825,0,0,1,.933.933v4.781A3.957,3.957,0,0,0,96.493-.9a2.27,2.27,0,0,0,1.877.828,2.052,2.052,0,0,0,1.714-.793,4.156,4.156,0,0,0,.618-2.542V-8.187a.825.825,0,0,1,.933-.933h.956a.825.825,0,0,1,.933.933v4.781q0,3.335,2.775,3.335h1.166A.825.825,0,0,0,108.4-1ZM132.512,2.68a6.607,6.607,0,0,1-2.88-.548,4.079,4.079,0,0,1-1.761-1.6,4.884,4.884,0,0,1-2.017,1.6,7.166,7.166,0,0,1-2.9.548h-7.626a.825.825,0,0,1-.933-.933V.861a.825.825,0,0,1,.933-.933H118.5l-1-10.938a.785.785,0,0,1,.21-.7,1.037,1.037,0,0,1,.723-.233H119.5a.869.869,0,0,1,.676.233,1.2,1.2,0,0,1,.257.7L121.5-.072h1.446a3.373,3.373,0,0,0,2.472-.793,3.483,3.483,0,0,0,.793-2.542V-13.5a.825.825,0,0,1,.933-.933h.956a.825.825,0,0,1,.933.933v10.1a3.45,3.45,0,0,0,.8,2.542,3.717,3.717,0,0,0,2.67.793ZM131,1.3a1.284,1.284,0,0,1,.42-.991,1.559,1.559,0,0,1,1.1-.385h4.664V2.68h-4.664a1.559,1.559,0,0,1-1.1-.385A1.284,1.284,0,0,1,131,1.3Zm11.567.653a2.222,2.222,0,0,1-1.154.571,9.71,9.71,0,0,1-1.9.152h-2.332a1.558,1.558,0,0,1-1.1-.385,1.284,1.284,0,0,1-.42-.991,1.284,1.284,0,0,1,.42-.991,1.558,1.558,0,0,1,1.1-.385h2.332A.825.825,0,0,0,140.442-1V-13.5a.825.825,0,0,1,.933-.933h.956a.825.825,0,0,1,.933.933V-1A9.2,9.2,0,0,1,143.112.85,2.162,2.162,0,0,1,142.564,1.957Z" transform="translate(186.106 203.353)" fill="#303030"/>
  </g>
</svg>
