<svg xmlns="http://www.w3.org/2000/svg" width="145.987" height="71.612" viewBox="0 0 145.987 71.612">
  <g id="Group_8" data-name="Group 8" transform="translate(-185.32 -139.613)">
    <g id="Group_4" data-name="Group 4" transform="translate(242.801 139.613)">
      <g id="Group_1" data-name="Group 1" transform="translate(0)">
        <path id="Path_1" data-name="Path 1" d="M283.6,158.51a10.354,10.354,0,0,0,2.821-2.629,9.239,9.239,0,0,0,1.45-3.049,11.214,11.214,0,0,0,.389-2.766,14.049,14.049,0,0,0-.163-2.049,9.672,9.672,0,0,0-.664-2.329,9.318,9.318,0,0,0-1.4-2.285,8.715,8.715,0,0,0-2.421-1.989,13.287,13.287,0,0,0-3.457-1.317,20,20,0,0,0-4.667-.483H264.91v32.129h6.939V160.478h1.272l8.344,11.264h8.541l-8.915-12.067A10.441,10.441,0,0,0,283.6,158.51Zm-11.749-14.361h1.229a19.566,19.566,0,0,1,3.2.26,7.237,7.237,0,0,1,2.52.888,4.5,4.5,0,0,1,1.633,1.7,6.088,6.088,0,0,1,.626,2.986,6.53,6.53,0,0,1-.53,2.792,4.377,4.377,0,0,1-1.456,1.744,6.868,6.868,0,0,1-2.477,1.045,16.287,16.287,0,0,1-3.559.356h-1.189Z" transform="translate(-264.91 -139.613)" fill="#fff"/>
      </g>
      <g id="Group_2" data-name="Group 2" transform="translate(30.309)">
        <path id="Path_2" data-name="Path 2" d="M368.958,139.613l2.131,5.087-11.371,27.042h5.216l1.589-3.834h14.43l1.629,3.834h7.4L376.41,139.613Zm-.538,23.759,5.257-12.547,5.359,12.547Z" transform="translate(-359.718 -139.613)" fill="#fff"/>
      </g>
      <g id="Group_3" data-name="Group 3" transform="translate(62.357 0)">
        <path id="Path_3" data-name="Path 3" d="M480.8,139.613,474.64,151.48l-6.571-11.866h-8.1l10.355,17.755v14.374h6.78V157.094l9.014-17.48Z" transform="translate(-459.967 -139.613)" fill="#fff"/>
      </g>
    </g>
    <g id="Group_6" data-name="Group 6" transform="translate(203.305 141.808)">
      <path id="Path_13" data-name="Path 13" d="M183.693,193.776l8.863-12.821a27.517,27.517,0,0,0-4.268-5.611l-7.81,13.342A27.8,27.8,0,0,0,183.693,193.776Z" transform="translate(-166.909 -166.116)" fill="#4fa935"/>
      <path id="Path_14" data-name="Path 14" d="M214.9,229.13a21.927,21.927,0,0,0,.343-11.717l-5.891,10.064A12.941,12.941,0,0,0,214.9,229.13Z" transform="translate(-186.551 -194.736)" fill="#4fa935"/>
      <path id="Path_15" data-name="Path 15" d="M197.289,210.3l6.841-9.9a27.8,27.8,0,0,0-2.914-7.353L193.164,206.8A19.46,19.46,0,0,0,197.289,210.3Z" transform="translate(-175.54 -178.16)" fill="#4fa935"/>
      <path id="Path_16" data-name="Path 16" d="M147.752,156.861a47.793,47.793,0,0,0,3.233,10.875l8.361-12.1c-4.663-4.692-11.582-8.288-21.311-9.162,0,0,3.378,6.012,4.711,17.851,2.65,23.9,14.043,29.244,34.785,21.137C144.555,185.467,147.752,156.861,147.752,156.861Z" transform="translate(-138.036 -146.479)" fill="#4fa935"/>
    </g>
    <path id="Path_17" data-name="Path 17" d="M3.708-7.291a.83.83,0,0,1,.939-.939h.962a.83.83,0,0,1,.939.939V2.8a6.172,6.172,0,0,1-.974,3.826,3.622,3.622,0,0,1-3.04,1.244,8.244,8.244,0,0,1-1.62-.164Q.14,7.567.14,6.886a.855.855,0,0,1,.012-.141q.012-.07.035-.164l.188-.8a.835.835,0,0,1,.892-.728,1.114,1.114,0,0,1,.258.023,4.111,4.111,0,0,0,.7.07,1.256,1.256,0,0,0,1.15-.516A3.645,3.645,0,0,0,3.708,2.8ZM13.167,2.8a9.773,9.773,0,0,1-1.913-.153,2.215,2.215,0,0,1-1.15-.563A2.2,2.2,0,0,1,9.541.96,9.257,9.257,0,0,1,9.388-.906V-13.488a.83.83,0,0,1,.939-.939h.962a.83.83,0,0,1,.939.939V-.906a.83.83,0,0,0,.939.939h2.324V2.8Zm.8-1.385a1.292,1.292,0,0,1,.422-1,1.569,1.569,0,0,1,1.1-.387h4.694V2.8H15.491a1.569,1.569,0,0,1-1.1-.387A1.292,1.292,0,0,1,13.965,1.417Zm4.694,0a1.292,1.292,0,0,1,.423-1,1.569,1.569,0,0,1,1.1-.387H24.88V2.8H20.185a1.569,1.569,0,0,1-1.1-.387A1.292,1.292,0,0,1,18.66,1.417Zm4.694,0a1.292,1.292,0,0,1,.422-1,1.569,1.569,0,0,1,1.1-.387h4.694V2.8H24.88a1.569,1.569,0,0,1-1.1-.387A1.292,1.292,0,0,1,23.354,1.417Zm4.694,0a1.292,1.292,0,0,1,.422-1,1.569,1.569,0,0,1,1.1-.387h4.694V2.8H29.574a1.569,1.569,0,0,1-1.1-.387A1.292,1.292,0,0,1,28.049,1.417Zm4.694,0a1.292,1.292,0,0,1,.423-1,1.569,1.569,0,0,1,1.1-.387h4.694V2.8H34.269a1.569,1.569,0,0,1-1.1-.387A1.292,1.292,0,0,1,32.743,1.417ZM53.07-6.023a7.078,7.078,0,0,1,.446,2.535v.258a1.319,1.319,0,0,1-.023.258A3.189,3.189,0,0,0,54.4-.7,3.819,3.819,0,0,0,56.99.032V2.8a6.614,6.614,0,0,1-2.958-.575A4.013,4.013,0,0,1,52.272.549,5.386,5.386,0,0,1,50.23,2.262a5.885,5.885,0,0,1-2.582.587,6.289,6.289,0,0,1-2.382-.481A7.142,7.142,0,0,1,43.024.877a4.28,4.28,0,0,1-1.69,1.432,5.441,5.441,0,0,1-2.371.493,1.526,1.526,0,0,1-1.091-.411,1.348,1.348,0,0,1-.434-1.021A1.221,1.221,0,0,1,37.86.4a1.631,1.631,0,0,1,1.1-.364,2.443,2.443,0,0,0,1.279-.317,1.818,1.818,0,0,0,.763-.88,6.941,6.941,0,0,0,.258-.728q.094-.329.176-.692t.164-.81q.082-.446.246-1.08a8.131,8.131,0,0,1,2.077-3.967,4.924,4.924,0,0,1,3.58-1.408,5.864,5.864,0,0,1,2.371.481A5.785,5.785,0,0,1,51.791-8.03,6.423,6.423,0,0,1,53.07-6.023ZM50.676-3.488a4.128,4.128,0,0,0-.235-1.42,3.364,3.364,0,0,0-.657-1.115,2.928,2.928,0,0,0-1.009-.728,3.112,3.112,0,0,0-1.268-.258,2.3,2.3,0,0,0-1.8.739A5.591,5.591,0,0,0,44.62-4.028q-.211.751-.305,1.268L44.1-1.751a5.4,5.4,0,0,0,1.7,1.385,3.986,3.986,0,0,0,1.772.446,3.081,3.081,0,0,0,1.2-.235,2.788,2.788,0,0,0,.986-.692,3.34,3.34,0,0,0,.669-1.127A4.358,4.358,0,0,0,50.676-3.488Zm4.788,4.906a1.292,1.292,0,0,1,.423-1,1.569,1.569,0,0,1,1.1-.387h4.694V2.8H56.99a1.569,1.569,0,0,1-1.1-.387A1.292,1.292,0,0,1,55.464,1.417ZM68.632-.766a3.7,3.7,0,0,0,2.676.8V2.8a6.65,6.65,0,0,1-2.9-.552A4.105,4.105,0,0,1,66.637.643a4.916,4.916,0,0,1-2.03,1.608,7.212,7.212,0,0,1-2.922.552,1.526,1.526,0,0,1-1.091-.411,1.348,1.348,0,0,1-.434-1.021A1.221,1.221,0,0,1,60.581.4a1.631,1.631,0,0,1,1.1-.364,3.4,3.4,0,0,0,2.488-.8,3.505,3.505,0,0,0,.8-2.558V-7.291a.83.83,0,0,1,.939-.939h.962a.83.83,0,0,1,.939.939v3.967A3.441,3.441,0,0,0,68.632-.766Zm.7-12.206a.757.757,0,0,1,.868.845v1.244a.757.757,0,0,1-.868.845H68.116a.757.757,0,0,1-.868-.845v-1.244a.757.757,0,0,1,.868-.845Zm-6.784.845a.757.757,0,0,1,.868-.845h1.221a.757.757,0,0,1,.868.845v1.244a.757.757,0,0,1-.868.845H63.421a.757.757,0,0,1-.868-.845Zm5.3-1.925a.757.757,0,0,1-.868.845H65.768a.757.757,0,0,1-.868-.845v-1.244a.757.757,0,0,1,.868-.845h1.221a.757.757,0,0,1,.868.845ZM69.782,1.417a1.292,1.292,0,0,1,.423-1,1.569,1.569,0,0,1,1.1-.387H76V2.8H71.308a1.569,1.569,0,0,1-1.1-.387A1.292,1.292,0,0,1,69.782,1.417Zm12.957.822a4.02,4.02,0,0,1-1.784-1.6,4.916,4.916,0,0,1-2.03,1.608A7.212,7.212,0,0,1,76,2.8a1.526,1.526,0,0,1-1.091-.411,1.348,1.348,0,0,1-.434-1.021A1.221,1.221,0,0,1,74.9.4,1.631,1.631,0,0,1,76,.032a3.4,3.4,0,0,0,2.488-.8,3.505,3.505,0,0,0,.8-2.558V-7.291a.83.83,0,0,1,.939-.939h.962a.83.83,0,0,1,.939.939v3.967a3.473,3.473,0,0,0,.81,2.558,3.741,3.741,0,0,0,2.688.8V2.8A6.453,6.453,0,0,1,82.739,2.239Zm-3.474-15.28a.757.757,0,0,1,.868.845v1.244a.757.757,0,0,1-.868.845H78.044a.757.757,0,0,1-.868-.845V-12.2a.757.757,0,0,1,.868-.845Zm4.225,0a.757.757,0,0,1,.868.845v1.244a.757.757,0,0,1-.868.845H82.269a.757.757,0,0,1-.868-.845V-12.2a.757.757,0,0,1,.868-.845ZM84.1,1.417a1.292,1.292,0,0,1,.423-1,1.569,1.569,0,0,1,1.1-.387H90.32V2.8H85.626a1.569,1.569,0,0,1-1.1-.387A1.292,1.292,0,0,1,84.1,1.417Zm25-10.328a.83.83,0,0,1,.939-.939H111a.83.83,0,0,1,.939.939v8A9.256,9.256,0,0,1,111.786.96a2.2,2.2,0,0,1-.563,1.127,2.215,2.215,0,0,1-1.15.563,9.773,9.773,0,0,1-1.913.153h-1.174a5.019,5.019,0,0,1-2.394-.516A3.85,3.85,0,0,1,103.066.807a4.414,4.414,0,0,1-1.713,1.49,5.278,5.278,0,0,1-2.347.5,4.483,4.483,0,0,1-2.289-.54A3.809,3.809,0,0,1,95.25.69a5.1,5.1,0,0,1-2.042,1.573,7.2,7.2,0,0,1-2.887.54,1.569,1.569,0,0,1-1.1-.387,1.292,1.292,0,0,1-.423-1,1.292,1.292,0,0,1,.423-1,1.569,1.569,0,0,1,1.1-.387,3.4,3.4,0,0,0,2.488-.8,3.505,3.505,0,0,0,.8-2.558V-8.136a.83.83,0,0,1,.939-.939h.962a.83.83,0,0,1,.939.939v4.812A3.983,3.983,0,0,0,97.116-.8a2.285,2.285,0,0,0,1.89.833,2.065,2.065,0,0,0,1.725-.8,4.183,4.183,0,0,0,.622-2.558V-8.136a.83.83,0,0,1,.939-.939h.962a.83.83,0,0,1,.939.939v4.812q0,3.357,2.793,3.357h1.174a.83.83,0,0,0,.939-.939ZM133.369,2.8a6.65,6.65,0,0,1-2.9-.552A4.1,4.1,0,0,1,128.7.643a4.916,4.916,0,0,1-2.03,1.608,7.212,7.212,0,0,1-2.922.552H116.07a.83.83,0,0,1-.939-.939V.971a.83.83,0,0,1,.939-.939h3.192l-1.009-11.008a.79.79,0,0,1,.211-.7,1.043,1.043,0,0,1,.728-.235h1.08a.875.875,0,0,1,.681.235,1.212,1.212,0,0,1,.258.7L122.29.032h1.455a3.4,3.4,0,0,0,2.488-.8,3.505,3.505,0,0,0,.8-2.558V-13.488a.83.83,0,0,1,.939-.939h.962a.83.83,0,0,1,.939.939V-3.324a3.473,3.473,0,0,0,.81,2.558,3.741,3.741,0,0,0,2.688.8Zm-1.526-1.385a1.292,1.292,0,0,1,.423-1,1.569,1.569,0,0,1,1.1-.387h4.694V2.8h-4.694a1.569,1.569,0,0,1-1.1-.387A1.292,1.292,0,0,1,131.843,1.417Zm11.642.657a2.236,2.236,0,0,1-1.162.575,9.773,9.773,0,0,1-1.913.153h-2.347a1.569,1.569,0,0,1-1.1-.387,1.292,1.292,0,0,1-.423-1,1.292,1.292,0,0,1,.423-1,1.569,1.569,0,0,1,1.1-.387h2.347a.83.83,0,0,0,.939-.939V-13.488a.83.83,0,0,1,.939-.939h.962a.83.83,0,0,1,.939.939V-.906A9.256,9.256,0,0,1,144.037.96,2.176,2.176,0,0,1,143.485,2.074Z" transform="translate(185.18 203.353)" fill="#fff"/>
  </g>
</svg>
