<svg xmlns="http://www.w3.org/2000/svg" width="1920" height="529.738" viewBox="0 0 1920 529.738">
    <path id="Subtraction_1" data-name="Subtraction 1" d="M1685,882.738v0h0c-55.891-23.488-119.731-44.968-189.745-63.843-70.431-18.987-147.246-35.372-228.309-48.7-82.541-13.571-169.793-24.019-259.333-31.055-45.563-3.58-92.311-6.315-138.945-8.128-47.41-1.844-95.816-2.779-143.873-2.779-48.03,0-96.406.934-143.784,2.775-46.608,1.812-93.329,4.544-138.863,8.119-89.491,7.028-176.7,17.464-259.2,31.019C101.92,783.458,25.134,799.824-45.277,818.79-115.271,837.643-179.1,859.1-235,882.563V353H1685V882.736Z" transform="translate(235 -353)" fill="#fff" />
</svg>
  